<svg xmlns="http://www.w3.org/2000/svg" version="1.1" xmlns:xlink="http://www.w3.org/1999/xlink" xmlns:svgjs="http://svgjs.dev/svgjs" width="1500" height="1500" viewBox="0 0 1500 1500"><rect width="1500" height="1500" fill="#ffffff"></rect><g transform="matrix(0.6666666666666666,0,0,0.6666666666666666,249.39451726915166,643.7595982280833)"><svg viewBox="0 0 396 84" data-background-color="#ffffff" preserveAspectRatio="xMidYMid meet" height="318" width="1500" xmlns="http://www.w3.org/2000/svg" xmlns:xlink="http://www.w3.org/1999/xlink"><g id="tight-bounds" transform="matrix(1,0,0,1,0.24022883858413024,0.09525353226888456)"><svg viewBox="0 0 395.52 83.80949293546226" height="83.80949293546226" width="395.52"><g><svg viewBox="0 0 535.8167004126485 113.53793984611794" height="83.80949293546226" width="395.52"><g><rect width="8.532473822064032" height="113.53793984611794" x="109.42790768465771" y="0" fill="#000000" opacity="1" stroke-width="0" stroke="transparent" fill-opacity="1" class="rect-qz-0" data-fill-palette-color="primary" rx="1%" id="qz-0" data-palette-color="#006f42"></rect></g><g transform="matrix(1,0,0,1,140.29670041264853,9.461494987176494)"><svg viewBox="0 0 395.52 94.61494987176495" height="94.61494987176495" width="395.52"><g id="textblocktransform"><svg viewBox="0 0 395.52 94.61494987176495" height="94.61494987176495" width="395.52" id="textblock"><g><svg viewBox="0 0 395.52 94.61494987176495" height="94.61494987176495" width="395.52"><g transform="matrix(1,0,0,1,0,0)"><svg width="395.52" viewBox="1.8 -37.75 214.42999999999998 51.3" height="94.61494987176495" data-palette-color="#006f42"><path d="M12.4 0L2.2 0 2.2-1.5Q3.75-1.5 4.35-2.27 4.95-3.05 5.05-4.42 5.15-5.8 5.15-7.6L5.15-7.6 5.15-19Q5.15-19.8 5.18-20.6 5.2-21.4 5.35-22.25L5.35-22.25Q4.45-22.2 3.58-22.15 2.7-22.1 1.8-22.05L1.8-22.05 1.8-24.15Q4-24.15 5.13-24.35 6.25-24.55 6.8-24.85 7.35-25.15 7.7-25.5L7.7-25.5 9.15-25.5Q9.25-25 9.28-24.35 9.3-23.7 9.35-22.85L9.35-22.85Q10.85-24.15 12.8-24.98 14.75-25.8 16.7-25.8L16.7-25.8Q19.2-25.8 20.9-24.9 22.6-24 23.55-22.45L23.55-22.45Q25.25-23.85 27.48-24.83 29.7-25.8 31.85-25.8L31.85-25.8Q36.2-25.8 38.25-23.18 40.3-20.55 40.2-14.6L40.2-14.6 40.15-5.3Q40.15-4.3 40.13-3.53 40.1-2.75 39.95-1.9L39.95-1.9Q40.75-1.95 41.53-1.98 42.3-2 43.1-2.05L43.1-2.05 43.1 0 32.9 0 32.9-1.5Q34.45-1.5 35.05-2.27 35.65-3.05 35.75-4.42 35.85-5.8 35.85-7.6L35.85-7.6 35.85-14.6Q35.85-18.9 34.48-21.05 33.1-23.2 30.15-23.15L30.15-23.15Q28.6-23.15 27.05-22.45 25.5-21.75 24.35-20.7L24.35-20.7Q24.6-19.9 24.73-18.98 24.85-18.05 24.85-17.05L24.85-17.05Q24.8-14.15 24.8-11.2 24.8-8.25 24.75-5.3L24.75-5.3Q24.75-4.3 24.73-3.53 24.7-2.75 24.55-1.9L24.55-1.9Q25.35-1.95 26.13-1.98 26.9-2 27.7-2.05L27.7-2.05 27.7 0 17.5 0 17.5-1.5Q19.05-1.5 19.63-2.27 20.2-3.05 20.33-4.42 20.45-5.8 20.45-7.6L20.45-7.6 20.5-14.6Q20.55-18.9 19.25-21.1 17.95-23.3 15-23.25L15-23.25Q13.45-23.25 11.95-22.58 10.45-21.9 9.4-20.85L9.4-20.85Q9.4-20.25 9.43-19.58 9.45-18.9 9.45-18.15L9.45-18.15 9.45-5.3Q9.45-4.3 9.43-3.53 9.4-2.75 9.25-1.9L9.25-1.9Q10.05-1.95 10.83-1.98 11.6-2 12.4-2.05L12.4-2.05 12.4 0ZM57.45 0.8L57.45 0.8Q54.75 0.8 52.92-0.2 51.1-1.2 50.17-3.6 49.25-6 49.25-10.1L49.25-10.1 49.25-19Q49.25-19.8 49.27-20.6 49.3-21.4 49.45-22.25L49.45-22.25Q48.6-22.2 47.72-22.18 46.85-22.15 46-22.1L46-22.1 46-24.15 47.55-24.15Q49.7-24.15 50.67-24.58 51.65-25 52.2-25.5L52.2-25.5 53.65-25.5 53.65-10.25Q53.65-5.95 54.87-3.83 56.1-1.7 59.05-1.75L59.05-1.75Q60.95-1.8 62.67-2.93 64.4-4.05 65.45-5.6L65.45-5.6 65.45-18.45Q65.45-19.65 65.5-20.53 65.55-21.4 65.7-22.25L65.7-22.25Q64.8-22.2 63.9-22.18 63-22.15 62.1-22.1L62.1-22.1 62.1-24.15 63.65-24.15Q65.8-24.15 66.77-24.58 67.75-25 68.3-25.5L68.3-25.5 69.75-25.5 69.7-6.6Q69.7-5.8 69.65-4.35 69.6-2.9 69.5-1.9L69.5-1.9Q70.4-1.95 71.3-2 72.2-2.05 73.1-2.1L73.1-2.1 73.1 0 65.95 0Q65.8-0.85 65.72-1.6 65.65-2.35 65.6-3L65.6-3Q64.05-1.45 61.85-0.33 59.65 0.8 57.45 0.8ZM76.25 0L76.25-1.5Q77.8-1.5 78.4-2.27 79-3.05 79.1-4.42 79.2-5.8 79.2-7.6L79.2-7.6 79.2-31.25Q79.2-32.05 79.22-32.77 79.25-33.5 79.35-34.5L79.35-34.5Q78.45-34.45 77.57-34.4 76.7-34.35 75.8-34.3L75.8-34.3 75.8-36.4Q78-36.4 79.22-36.6 80.45-36.8 81.07-37.1 81.7-37.4 82.05-37.75L82.05-37.75 83.5-37.75 83.55-5.3Q83.55-4.3 83.5-3.53 83.45-2.75 83.3-1.9L83.3-1.9Q84.1-1.95 84.87-1.98 85.65-2 86.45-2.05L86.45-2.05 86.45 0 76.25 0ZM93.39 0L93.49-31.25Q93.49-32.05 93.52-32.77 93.54-33.5 93.64-34.5L93.64-34.5Q92.74-34.45 91.87-34.4 90.99-34.35 90.09-34.3L90.09-34.3 90.09-36.4Q92.29-36.4 93.52-36.6 94.74-36.8 95.37-37.1 95.99-37.4 96.34-37.75L96.34-37.75 97.79-37.75 97.79-22.85Q99.19-24.25 101.12-25.03 103.04-25.8 105.34-25.8L105.34-25.8Q108.54-25.8 111.12-24.25 113.69-22.7 115.19-19.85 116.69-17 116.69-13.1L116.69-13.1Q116.69-8.85 114.84-5.73 112.99-2.6 110.04-0.9 107.09 0.8 103.69 0.8L103.69 0.8Q101.99 0.8 99.97 0.18 97.94-0.45 96.34-2.25L96.34-2.25 95.14 0 93.39 0ZM97.79-20.5L97.79-7.85Q97.79-5.2 98.64-3.78 99.49-2.35 100.84-1.8 102.19-1.25 103.69-1.25L103.69-1.25Q106.09-1.25 107.84-2.6 109.59-3.95 110.57-6.33 111.54-8.7 111.54-11.85L111.54-11.85Q111.54-15.25 110.69-17.82 109.84-20.4 108.14-21.88 106.44-23.35 103.84-23.35L103.84-23.35Q102.19-23.35 100.57-22.58 98.94-21.8 97.79-20.5L97.79-20.5ZM133.09 0.8L133.09 0.8Q129.64 0.8 126.87-0.83 124.09-2.45 122.49-5.43 120.89-8.4 120.89-12.45L120.89-12.45Q120.89-15.95 122.47-19 124.04-22.05 126.89-23.93 129.74-25.8 133.49-25.8L133.49-25.8Q135.59-25.8 137.42-25.13 139.24-24.45 140.64-23.08 142.04-21.7 142.84-19.63 143.64-17.55 143.64-14.75L143.64-14.75 126.04-14.45Q126.04-10.65 126.87-7.78 127.69-4.9 129.54-3.33 131.39-1.75 134.29-1.75L134.29-1.75Q135.84-1.75 137.47-2.3 139.09-2.85 140.49-3.8 141.89-4.75 142.74-5.9L142.74-5.9 143.94-4.9Q142.59-2.8 140.69-1.55 138.79-0.3 136.79 0.25 134.79 0.8 133.09 0.8ZM126.19-16.55L126.19-16.55 138.94-16.55Q138.94-18.35 138.42-20.03 137.89-21.7 136.69-22.78 135.49-23.85 133.54-23.85L133.54-23.85Q130.64-23.85 128.72-22.13 126.79-20.4 126.19-16.55ZM148.09 0L148.09-1.5Q149.64-1.5 150.24-2.27 150.84-3.05 150.94-4.42 151.04-5.8 151.04-7.6L151.04-7.6 151.04-19Q151.04-19.8 151.06-20.6 151.09-21.4 151.24-22.25L151.24-22.25Q150.34-22.2 149.46-22.18 148.59-22.15 147.69-22.1L147.69-22.1 147.69-24.15 149.24-24.15Q151.39-24.15 152.21-24.58 153.04-25 153.59-25.5L153.59-25.5 155.04-25.5Q155.14-24.7 155.19-23.53 155.24-22.35 155.29-20.55L155.29-20.55Q156.04-21.8 157.34-23 158.64-24.2 160.26-25 161.89-25.8 163.69-25.8L163.69-25.8Q165.09-25.8 166.14-25.05 167.19-24.3 167.19-22.65L167.19-22.65Q167.19-22.25 166.94-21.68 166.69-21.1 166.14-20.68 165.59-20.25 164.69-20.25L164.69-20.25Q163.59-20.3 162.94-21.13 162.29-21.95 162.44-23.05L162.44-23.05Q161.19-23.1 159.86-22.4 158.54-21.7 157.39-20.48 156.24-19.25 155.34-17.6L155.34-17.6 155.39-5.3Q155.39-4.3 155.36-3.53 155.34-2.75 155.19-1.9L155.19-1.9Q155.99-1.95 156.76-1.98 157.54-2 158.34-2.05L158.34-2.05 158.34 0 148.09 0ZM169.74 0L169.74-1.5Q171.29-1.5 171.89-2.27 172.49-3.05 172.59-4.42 172.69-5.8 172.69-7.6L172.69-7.6 172.69-19Q172.69-19.8 172.71-20.6 172.74-21.4 172.89-22.25L172.89-22.25Q171.99-22.2 171.11-22.18 170.24-22.15 169.34-22.1L169.34-22.1 169.34-24.15 170.89-24.15Q173.04-24.15 173.86-24.58 174.69-25 175.24-25.5L175.24-25.5 176.69-25.5Q176.79-24.7 176.84-23.53 176.89-22.35 176.94-20.55L176.94-20.55Q177.69-21.8 178.99-23 180.29-24.2 181.91-25 183.54-25.8 185.34-25.8L185.34-25.8Q186.74-25.8 187.79-25.05 188.84-24.3 188.84-22.65L188.84-22.65Q188.84-22.25 188.59-21.68 188.34-21.1 187.79-20.68 187.24-20.25 186.34-20.25L186.34-20.25Q185.24-20.3 184.59-21.13 183.94-21.95 184.09-23.05L184.09-23.05Q182.84-23.1 181.51-22.4 180.19-21.7 179.04-20.48 177.89-19.25 176.99-17.6L176.99-17.6 177.04-5.3Q177.04-4.3 177.01-3.53 176.99-2.75 176.84-1.9L176.84-1.9Q177.64-1.95 178.41-1.98 179.19-2 179.99-2.05L179.99-2.05 179.99 0 169.74 0ZM196.08 13.55L196.08 13.55Q194.53 13.55 193.43 12.8 192.33 12.05 192.33 10.5L192.33 10.5Q192.33 9.6 192.93 8.85 193.53 8.1 194.48 8.1L194.48 8.1Q195.68 8.05 196.11 8.85 196.53 9.65 196.53 10.25L196.53 10.25Q196.53 10.4 196.53 10.58 196.53 10.75 196.48 10.95L196.48 10.95Q196.63 11.05 197.03 11.05L197.03 11.05Q197.63 11.05 198.33 10.55 199.03 10.05 199.58 9.1L199.58 9.1Q200.23 8 201.11 5.8 201.98 3.6 203.08 0.55L203.08 0.55 195.28-16.15Q193.98-18.95 193.41-20.6 192.83-22.25 192.63-23.05L192.63-23.05 190.23-22.95 190.23-25 200.58-25 200.58-23.5 200.38-23.5Q198.28-23.35 198.08-21.93 197.88-20.5 199.23-17.6L199.23-17.6 205.08-5.05Q206.23-8.25 207.28-11.38 208.33-14.5 209.38-17.6L209.38-17.6Q209.78-18.7 210.21-19.88 210.63-21.05 211.06-21.98 211.48-22.9 211.83-23.15L211.83-23.15 208.38-22.95 208.38-25 216.23-25 216.23-23.5Q214.38-22.8 213.46-21.18 212.53-19.55 211.58-17L211.58-17 205.33 0.45Q203.83 4.65 202.58 7.58 201.33 10.5 199.83 12.03 198.33 13.55 196.08 13.55Z" opacity="1" transform="matrix(1,0,0,1,0,0)" fill="#000000" class="wordmark-text-0" data-fill-palette-color="primary" id="text-0"></path></svg></g></svg></g></svg></g></svg></g><g transform="matrix(1,0,0,1,0,1.1968791158778203)"><svg viewBox="0 0 87.09158877873092 111.1441816143623" height="111.1441816143623" width="87.09158877873092"><g><svg xmlns="http://www.w3.org/2000/svg" xmlns:xlink="http://www.w3.org/1999/xlink" version="1.1" x="0" y="0" viewBox="19.27343749999998 10.787109400000004 61.45358544592512 78.4255811317071" enable-background="new 0 0 100 100" xml:space="preserve" height="111.1441816143623" width="87.09158877873092" class="icon-icon-0" data-fill-palette-color="accent" id="icon-0"><path fill-rule="evenodd" clip-rule="evenodd" d="M62.875 76.021c-1.545-4.614-7.893-6.201-11.151-1.754-2.171 2.966-1.211 6.995 1.441 8.917 2.485 1.294 4.552 0.627 6.034-1.148C59.387 79.571 60.766 77.316 62.875 76.021z" fill="#000000" data-fill-palette-color="accent"></path><path fill-rule="evenodd" clip-rule="evenodd" d="M64.127 75.395c2.756-1.064 5.868-0.46 8.04 1.523 1.399-3.006 1.127-5.992-1.796-8.122-3.278-2.401-7.956-1.106-9.564 2.569C62.332 72.284 63.543 73.725 64.127 75.395z" fill="#000000" data-fill-palette-color="accent"></path><path fill-rule="evenodd" clip-rule="evenodd" d="M69.995 76.648c-5.387-2.84-11.38 2.652-9.104 8.499 0.835 2.172 2.986 3.717 5.262 4.009C73.148 90.053 76.573 80.093 69.995 76.648z" fill="#000000" data-fill-palette-color="accent"></path><path fill-rule="evenodd" clip-rule="evenodd" d="M45.647 63.346c-1.67 0.104-3.612 1.336-4.552 2.611-3.696 5.053 1.524 11.568 6.953 9.626-0.25-1.315-0.146-2.526 0.314-3.8C45.313 69.569 44.875 66.792 45.647 63.346z" fill="#000000" data-fill-palette-color="accent"></path><path fill-rule="evenodd" clip-rule="evenodd" d="M41.742 49.648c0.23 2.025 1.399 3.738 3.133 4.74 1.232-3.613 5.033-5.784 8.812-5.095 0.083-0.188 0.167-0.376 0.271-0.564-2.485-1.649-3.905-2.777-4.218-5.972C45.438 41.546 41.22 45.137 41.742 49.648z" fill="#000000" data-fill-palette-color="accent"></path><path fill-rule="evenodd" clip-rule="evenodd" d="M40.385 50.191c-0.084-2.13 0.271-4.218 1.545-5.972l0.71-0.773c-1.712-1.295-2.798-3.404-2.986-5.534-3.989 1.211-5.805 6.85-2.735 10.254C37.796 49.126 39.069 49.94 40.385 50.191z" fill="#000000" data-fill-palette-color="accent"></path><path fill-rule="evenodd" clip-rule="evenodd" d="M46.169 61.947l0.084-0.125c-1.399-1.691-2.026-3.863-1.712-6.035-1.712-0.877-3.153-2.36-3.843-4.155-0.397-0.021-0.773-0.125-1.148-0.23-5.116 3.174-3.278 11.005 2.61 11.715C43.225 62.323 44.833 61.885 46.169 61.947z" fill="#000000" data-fill-palette-color="accent"></path><path fill-rule="evenodd" clip-rule="evenodd" d="M57.967 59.546c-3.55-1.399-5.659-5.179-4.74-8.896-5.179-0.459-9.918 5.137-5.826 10.211C50.137 64.286 56.109 63.451 57.967 59.546z" fill="#000000" data-fill-palette-color="accent"></path><path fill-rule="evenodd" clip-rule="evenodd" d="M54.689 47.622c1.921-2.359 5.325-3.821 8.29-2.798 0.209-0.271 0.355-0.584 0.48-0.898 1.524-4.511-2.297-9.125-7.142-8.269C50.429 36.659 49.051 44.803 54.689 47.622z" fill="#000000" data-fill-palette-color="accent"></path><path fill-rule="evenodd" clip-rule="evenodd" d="M54.647 34.676c2.756-1.065 5.868-0.459 8.04 1.524 1.399-2.986 1.128-5.972-1.796-8.123-3.278-2.401-7.956-1.086-9.564 2.569C52.852 31.564 54.042 33.005 54.647 34.676z" fill="#000000" data-fill-palette-color="accent"></path><path fill-rule="evenodd" clip-rule="evenodd" d="M68.408 56.059c3.258 1.545 4.322 4.573 4.03 8.185 1.315-0.25 2.61-0.167 3.884 0.251 4.03-2.756 3.613-8.833-0.772-10.963C73.691 55.683 71.102 56.476 68.408 56.059z" fill="#000000" data-fill-palette-color="accent"></path><path fill-rule="evenodd" clip-rule="evenodd" d="M64.294 45.346c3.592 1.754 5.033 5.513 3.885 9.272 4.385 1.086 8.499-2.652 7.809-7.121C74.965 40.961 66.32 40.585 64.294 45.346z" fill="#000000" data-fill-palette-color="accent"></path><path fill-rule="evenodd" clip-rule="evenodd" d="M63.689 46.62c-5.179-2.735-10.942 2.547-8.75 8.165 0.793 2.088 2.861 3.592 5.054 3.863C66.717 59.504 69.995 49.94 63.689 46.62z" fill="#000000" data-fill-palette-color="accent"></path><path fill-rule="evenodd" clip-rule="evenodd" d="M49.573 72.513c-0.292 1.045-0.334 2.046-0.063 3.029 0.313-0.919 0.793-1.755 1.42-2.506C50.471 72.911 50.011 72.744 49.573 72.513z" fill="#000000" data-fill-palette-color="accent"></path><path fill-rule="evenodd" clip-rule="evenodd" d="M57.362 70.279c0.501-0.71 1.127-1.398 1.733-2.046-1.42-1.483-1.817-3.488-1.838-5.492-2.819 2.443-7.058 2.526-9.981 0.125-1.274 2.799-0.71 5.784 1.9 7.684 0.897 0.689 1.9 1.148 3.007 1.295C53.666 70.739 55.524 70.154 57.362 70.279z" fill="#000000" data-fill-palette-color="accent"></path><path fill-rule="evenodd" clip-rule="evenodd" d="M58.803 70.53c0.271 0.063 0.522 0.146 0.752 0.229 0.229-0.501 0.521-1.002 0.835-1.462-0.083-0.063-0.188-0.125-0.272-0.187C59.617 69.548 59.179 69.987 58.803 70.53z" fill="#000000" data-fill-palette-color="accent"></path><path fill-rule="evenodd" clip-rule="evenodd" d="M61.329 68.253c2.276-2.13 5.701-2.61 8.541-1.357 2.61-3.257 1.065-8.582-2.903-9.939-2.025 2.506-4.406 3.654-7.642 2.985C57.821 62.782 58.656 66.458 61.329 68.253z" fill="#000000" data-fill-palette-color="accent"></path><path fill-rule="evenodd" clip-rule="evenodd" d="M80.019 73.411c1.232-4.761-3.111-8.979-7.894-7.663-0.25 0.669-0.564 1.295-0.981 1.858 1.483 1.044 2.506 2.568 2.965 4.323C76.218 71.594 78.327 72.116 80.019 73.411z" fill="#000000" data-fill-palette-color="accent"></path><path fill-rule="evenodd" clip-rule="evenodd" d="M74.339 73.286c0.146 1.649-0.292 3.362-1.17 4.76 1.106 1.483 1.545 3.091 1.462 4.867C80.77 84.395 84.654 72.096 74.339 73.286z" fill="#000000" data-fill-palette-color="accent"></path><path fill-rule="evenodd" clip-rule="evenodd" d="M65.151 42.214c1.9-1.399 4.385-1.858 6.661-1.191 1.628-4.427-2.067-9.188-6.954-8.436 0.146 1.65-0.292 3.341-1.169 4.741C64.795 38.831 65.234 40.439 65.151 42.214z" fill="#000000" data-fill-palette-color="accent"></path><path fill-rule="evenodd" clip-rule="evenodd" d="M48.028 30.98c-2.067-0.251-4.26 0.501-5.785 2.568-2.171 2.965-1.211 7.017 1.441 8.937 1.796-1.232 3.926-1.649 6.035-1.148 0.188-2.485 1.566-4.74 3.676-6.035-0.48-1.42-1.399-2.548-2.548-3.299-2.171-5.033-5.91-9.229-11.026-12.717-5.262-3.592-11.986-6.39-20.005-8.499l-0.543 2.005c7.81 2.067 14.325 4.782 19.379 8.206C42.787 23.817 45.939 27.117 48.028 30.98z" fill="#000000" data-fill-palette-color="accent"></path></svg></g></svg></g></svg></g><defs></defs></svg><rect width="395.52" height="83.80949293546226" fill="none" stroke="none" visibility="hidden"></rect></g></svg></g></svg>