<svg xmlns="http://www.w3.org/2000/svg" version="1.1" xmlns:xlink="http://www.w3.org/1999/xlink" xmlns:svgjs="http://svgjs.dev/svgjs" width="128" height="128" viewBox="0 0 128 128"><g transform="matrix(0.6358024691358025,0,0,0.6358024691358025,23.21021885788499,12.760944586309591)"><svg viewBox="0 0 75 95" data-background-color="#ffffff" preserveAspectRatio="xMidYMid meet" height="162" width="128" xmlns="http://www.w3.org/2000/svg" xmlns:xlink="http://www.w3.org/1999/xlink"><g id="tight-bounds" transform="matrix(1,0,0,1,0.09123659427606867,-0.2405438541175613)"><svg viewBox="0 0 74.81805945573174 95.48099999999998" height="95.48099999999998" width="74.81805945573174"><g><svg viewBox="0 0 74.81805945573174 95.48099999999998" height="95.48099999999998" width="74.81805945573174"><g><svg viewBox="0 0 74.81805945573174 95.48099999999998" height="95.48099999999998" width="74.81805945573174"><g id="textblocktransform"><svg viewBox="0 0 74.81805945573174 95.48099999999998" height="95.48099999999998" width="74.81805945573174" id="textblock"><g><svg viewBox="0 0 74.81805945573174 95.48099999999998" height="95.48099999999998" width="74.81805945573174"><g><svg viewBox="0 0 74.81805945573174 95.48099999999998" height="95.48099999999998" width="74.81805945573174"><g><svg xmlns="http://www.w3.org/2000/svg" xmlns:xlink="http://www.w3.org/1999/xlink" version="1.1" x="0" y="0" viewBox="19.27343749999998 10.787109400000004 61.45358544592512 78.4255811317071" enable-background="new 0 0 100 100" xml:space="preserve" height="95.48099999999998" width="74.81805945573174" class="icon-icon-0" data-fill-palette-color="accent" id="icon-0"><path fill-rule="evenodd" clip-rule="evenodd" d="M62.875 76.021c-1.545-4.614-7.893-6.201-11.151-1.754-2.171 2.966-1.211 6.995 1.441 8.917 2.485 1.294 4.552 0.627 6.034-1.148C59.387 79.571 60.766 77.316 62.875 76.021z" fill="#ffffff" data-fill-palette-color="accent"></path><path fill-rule="evenodd" clip-rule="evenodd" d="M64.127 75.395c2.756-1.064 5.868-0.46 8.04 1.523 1.399-3.006 1.127-5.992-1.796-8.122-3.278-2.401-7.956-1.106-9.564 2.569C62.332 72.284 63.543 73.725 64.127 75.395z" fill="#ffffff" data-fill-palette-color="accent"></path><path fill-rule="evenodd" clip-rule="evenodd" d="M69.995 76.648c-5.387-2.84-11.38 2.652-9.104 8.499 0.835 2.172 2.986 3.717 5.262 4.009C73.148 90.053 76.573 80.093 69.995 76.648z" fill="#ffffff" data-fill-palette-color="accent"></path><path fill-rule="evenodd" clip-rule="evenodd" d="M45.647 63.346c-1.67 0.104-3.612 1.336-4.552 2.611-3.696 5.053 1.524 11.568 6.953 9.626-0.25-1.315-0.146-2.526 0.314-3.8C45.313 69.569 44.875 66.792 45.647 63.346z" fill="#ffffff" data-fill-palette-color="accent"></path><path fill-rule="evenodd" clip-rule="evenodd" d="M41.742 49.648c0.23 2.025 1.399 3.738 3.133 4.74 1.232-3.613 5.033-5.784 8.812-5.095 0.083-0.188 0.167-0.376 0.271-0.564-2.485-1.649-3.905-2.777-4.218-5.972C45.438 41.546 41.22 45.137 41.742 49.648z" fill="#ffffff" data-fill-palette-color="accent"></path><path fill-rule="evenodd" clip-rule="evenodd" d="M40.385 50.191c-0.084-2.13 0.271-4.218 1.545-5.972l0.71-0.773c-1.712-1.295-2.798-3.404-2.986-5.534-3.989 1.211-5.805 6.85-2.735 10.254C37.796 49.126 39.069 49.94 40.385 50.191z" fill="#ffffff" data-fill-palette-color="accent"></path><path fill-rule="evenodd" clip-rule="evenodd" d="M46.169 61.947l0.084-0.125c-1.399-1.691-2.026-3.863-1.712-6.035-1.712-0.877-3.153-2.36-3.843-4.155-0.397-0.021-0.773-0.125-1.148-0.23-5.116 3.174-3.278 11.005 2.61 11.715C43.225 62.323 44.833 61.885 46.169 61.947z" fill="#ffffff" data-fill-palette-color="accent"></path><path fill-rule="evenodd" clip-rule="evenodd" d="M57.967 59.546c-3.55-1.399-5.659-5.179-4.74-8.896-5.179-0.459-9.918 5.137-5.826 10.211C50.137 64.286 56.109 63.451 57.967 59.546z" fill="#ffffff" data-fill-palette-color="accent"></path><path fill-rule="evenodd" clip-rule="evenodd" d="M54.689 47.622c1.921-2.359 5.325-3.821 8.29-2.798 0.209-0.271 0.355-0.584 0.48-0.898 1.524-4.511-2.297-9.125-7.142-8.269C50.429 36.659 49.051 44.803 54.689 47.622z" fill="#ffffff" data-fill-palette-color="accent"></path><path fill-rule="evenodd" clip-rule="evenodd" d="M54.647 34.676c2.756-1.065 5.868-0.459 8.04 1.524 1.399-2.986 1.128-5.972-1.796-8.123-3.278-2.401-7.956-1.086-9.564 2.569C52.852 31.564 54.042 33.005 54.647 34.676z" fill="#ffffff" data-fill-palette-color="accent"></path><path fill-rule="evenodd" clip-rule="evenodd" d="M68.408 56.059c3.258 1.545 4.322 4.573 4.03 8.185 1.315-0.25 2.61-0.167 3.884 0.251 4.03-2.756 3.613-8.833-0.772-10.963C73.691 55.683 71.102 56.476 68.408 56.059z" fill="#ffffff" data-fill-palette-color="accent"></path><path fill-rule="evenodd" clip-rule="evenodd" d="M64.294 45.346c3.592 1.754 5.033 5.513 3.885 9.272 4.385 1.086 8.499-2.652 7.809-7.121C74.965 40.961 66.32 40.585 64.294 45.346z" fill="#ffffff" data-fill-palette-color="accent"></path><path fill-rule="evenodd" clip-rule="evenodd" d="M63.689 46.62c-5.179-2.735-10.942 2.547-8.75 8.165 0.793 2.088 2.861 3.592 5.054 3.863C66.717 59.504 69.995 49.94 63.689 46.62z" fill="#ffffff" data-fill-palette-color="accent"></path><path fill-rule="evenodd" clip-rule="evenodd" d="M49.573 72.513c-0.292 1.045-0.334 2.046-0.063 3.029 0.313-0.919 0.793-1.755 1.42-2.506C50.471 72.911 50.011 72.744 49.573 72.513z" fill="#ffffff" data-fill-palette-color="accent"></path><path fill-rule="evenodd" clip-rule="evenodd" d="M57.362 70.279c0.501-0.71 1.127-1.398 1.733-2.046-1.42-1.483-1.817-3.488-1.838-5.492-2.819 2.443-7.058 2.526-9.981 0.125-1.274 2.799-0.71 5.784 1.9 7.684 0.897 0.689 1.9 1.148 3.007 1.295C53.666 70.739 55.524 70.154 57.362 70.279z" fill="#ffffff" data-fill-palette-color="accent"></path><path fill-rule="evenodd" clip-rule="evenodd" d="M58.803 70.53c0.271 0.063 0.522 0.146 0.752 0.229 0.229-0.501 0.521-1.002 0.835-1.462-0.083-0.063-0.188-0.125-0.272-0.187C59.617 69.548 59.179 69.987 58.803 70.53z" fill="#ffffff" data-fill-palette-color="accent"></path><path fill-rule="evenodd" clip-rule="evenodd" d="M61.329 68.253c2.276-2.13 5.701-2.61 8.541-1.357 2.61-3.257 1.065-8.582-2.903-9.939-2.025 2.506-4.406 3.654-7.642 2.985C57.821 62.782 58.656 66.458 61.329 68.253z" fill="#ffffff" data-fill-palette-color="accent"></path><path fill-rule="evenodd" clip-rule="evenodd" d="M80.019 73.411c1.232-4.761-3.111-8.979-7.894-7.663-0.25 0.669-0.564 1.295-0.981 1.858 1.483 1.044 2.506 2.568 2.965 4.323C76.218 71.594 78.327 72.116 80.019 73.411z" fill="#ffffff" data-fill-palette-color="accent"></path><path fill-rule="evenodd" clip-rule="evenodd" d="M74.339 73.286c0.146 1.649-0.292 3.362-1.17 4.76 1.106 1.483 1.545 3.091 1.462 4.867C80.77 84.395 84.654 72.096 74.339 73.286z" fill="#ffffff" data-fill-palette-color="accent"></path><path fill-rule="evenodd" clip-rule="evenodd" d="M65.151 42.214c1.9-1.399 4.385-1.858 6.661-1.191 1.628-4.427-2.067-9.188-6.954-8.436 0.146 1.65-0.292 3.341-1.169 4.741C64.795 38.831 65.234 40.439 65.151 42.214z" fill="#ffffff" data-fill-palette-color="accent"></path><path fill-rule="evenodd" clip-rule="evenodd" d="M48.028 30.98c-2.067-0.251-4.26 0.501-5.785 2.568-2.171 2.965-1.211 7.017 1.441 8.937 1.796-1.232 3.926-1.649 6.035-1.148 0.188-2.485 1.566-4.74 3.676-6.035-0.48-1.42-1.399-2.548-2.548-3.299-2.171-5.033-5.91-9.229-11.026-12.717-5.262-3.592-11.986-6.39-20.005-8.499l-0.543 2.005c7.81 2.067 14.325 4.782 19.379 8.206C42.787 23.817 45.939 27.117 48.028 30.98z" fill="#ffffff" data-fill-palette-color="accent"></path></svg></g></svg></g></svg></g></svg></g></svg></g></svg></g><defs></defs></svg><rect width="74.81805945573174" height="95.48099999999998" fill="none" stroke="none" visibility="hidden"></rect></g></svg></g></svg>